<svg width="340" height="440" viewBox="0 0 340 440" fill="none" xmlns="http://www.w3.org/2000/svg">
<g clip-path="url(#clip0_1_2)">
<path d="M261.985 60.0219H78.0149C76.3583 60.0219 75.0154 61.3623 75.0154 63.0158V67.0077C75.0154 68.6611 76.3583 70.0016 78.0149 70.0016H261.985C263.642 70.0016 264.985 68.6611 264.985 67.0077V63.0158C264.985 61.3623 263.642 60.0219 261.985 60.0219Z" fill="#8B7355" stroke="#6B5A45" stroke-width="1.49835"/>
</g>
<g clip-path="url(#clip1_1_2)">
<path d="M170 72.9933C225.232 72.9933 270.008 68.5226 270.008 63.0078C270.008 57.493 225.232 53.0224 170 53.0224C114.767 53.0224 69.9921 57.493 69.9921 63.0078C69.9921 68.5226 114.767 72.9933 170 72.9933Z" fill="#A0826D" stroke="#8B7355" stroke-width="1.49897"/>
</g>
<g clip-path="url(#clip2_1_2)">
<path opacity="0.5" d="M170 71.0154C216.944 71.0154 255 67.432 255 63.0116C255 58.5912 216.944 55.0078 170 55.0078C123.056 55.0078 85 58.5912 85 63.0116C85 67.432 123.056 71.0154 170 71.0154Z" stroke="#8B7355" stroke-width="0.500118"/>
</g>
<g clip-path="url(#clip3_1_2)">
<path d="M259.985 70.0006H80.0153V100.015H259.985V70.0006Z" fill="white" fill-opacity="0.12" stroke="#B8C5D6" stroke-width="2.50038"/>
</g>
<g clip-path="url(#clip4_1_2)">
<path d="M50 100.023C50 103.356 50.6667 106.689 52 110.021V339.979C52 356.643 58 369.974 70 379.972C83.3333 389.97 100 395.969 120 397.969H220C240 395.969 256.667 389.97 270 379.972C282 369.974 288 356.643 288 339.979V110.021C289.333 106.689 290 103.356 290 100.023H50Z" fill="white" fill-opacity="0.15" stroke="#A8B8CC" stroke-width="2.99973"/>
</g>
<g clip-path="url(#clip5_1_2)">
<path opacity="0.3" d="M58.0155 109.992V339.992C58.0155 354.659 63.3481 366.325 74.0133 374.992C86.0117 383.659 100.676 388.992 118.007 390.992H221.993C239.324 388.992 253.989 383.659 265.987 374.992C276.652 366.325 281.985 354.659 281.985 339.992V109.992H58.0155Z" stroke="#B8C5D6" stroke-width="1.4999"/>
</g>
<g clip-path="url(#clip6_1_2)">
<path opacity="0.9" d="M65.008 119.984V335.009C65.008 350.344 70.0076 362.013 80.0069 370.014C90.0061 378.014 101.672 383.348 115.004 386.015H224.996C238.328 383.348 249.994 378.014 259.993 370.014C269.992 362.013 274.992 350.344 274.992 335.009V119.984H65.008Z" fill="url(#paint0_linear_1_2)"/>
</g>
<g clip-path="url(#clip7_1_2)">
<path opacity="0.7" d="M170 132C226.333 132 272 126.631 272 120.008C272 113.385 226.333 108.016 170 108.016C113.667 108.016 68 113.385 68 120.008C68 126.631 113.667 132 170 132Z" fill="#E879F9"/>
</g>
<g clip-path="url(#clip8_1_2)">
<path d="M170 128C214.187 128 250.008 124.413 250.008 119.988C250.008 115.564 214.187 111.977 170 111.977C125.813 111.977 89.992 115.564 89.992 119.988C89.992 124.413 125.813 128 170 128Z" fill="url(#paint1_radial_1_2)"/>
</g>
<g clip-path="url(#clip9_1_2)">
<path opacity="0.4" d="M85 299.992C96.0414 299.992 104.992 264.178 104.992 220C104.992 175.821 96.0414 140.008 85 140.008C73.9586 140.008 65.0078 175.821 65.0078 220C65.0078 264.178 73.9586 299.992 85 299.992Z" fill="white"/>
</g>
<g clip-path="url(#clip10_1_2)">
<path opacity="0.3" d="M80.0039 220C86.6335 220 92.0078 202.093 92.0078 180.004C92.0078 157.915 86.6335 140.008 80.0039 140.008C73.3743 140.008 68 157.915 68 180.004C68 202.093 73.3743 220 80.0039 220Z" fill="white"/>
</g>
<g clip-path="url(#clip11_1_2)">
<path opacity="0.4" d="M80 78.0117H260" stroke="#B8C5D6" stroke-width="1.5039"/>
</g>
<g clip-path="url(#clip12_1_2)">
<path opacity="0.4" d="M80 86.0195H260" stroke="#B8C5D6" stroke-width="1.5039"/>
</g>
<g clip-path="url(#clip13_1_2)">
<path opacity="0.4" d="M80 93.9805H260" stroke="#B8C5D6" stroke-width="1.5039"/>
</g>
<g clip-path="url(#clip14_1_2)">
<path opacity="0.2" d="M60.0078 149.996H70.0078" stroke="#B8C5D6" stroke-width="1.0039"/>
</g>
<g clip-path="url(#clip15_1_2)">
<path opacity="0.25" d="M60.0078 199.98H70.0078" stroke="#B8C5D6" stroke-width="1.5039"/>
</g>
<g clip-path="url(#clip16_1_2)">
<path opacity="0.2" d="M60.0078 250.012H70.0078" stroke="#B8C5D6" stroke-width="1.0039"/>
</g>
<g clip-path="url(#clip17_1_2)">
<path opacity="0.2" d="M60.0078 299.988H70.0078" stroke="#B8C5D6" stroke-width="1.0039"/>
</g>
<g clip-path="url(#clip18_1_2)">
<path opacity="0.2" d="M269.992 149.996H279.992" stroke="#B8C5D6" stroke-width="1.0039"/>
</g>
<g clip-path="url(#clip19_1_2)">
<path opacity="0.25" d="M269.992 199.98H279.992" stroke="#B8C5D6" stroke-width="1.5039"/>
</g>
<g clip-path="url(#clip20_1_2)">
<path opacity="0.2" d="M269.992 250.012H279.992" stroke="#B8C5D6" stroke-width="1.0039"/>
</g>
<g clip-path="url(#clip21_1_2)">
<path opacity="0.2" d="M269.992 299.988H279.992" stroke="#B8C5D6" stroke-width="1.0039"/>
</g>
<path d="M125.309 229.515C124.762 229.583 124.297 229.651 123.914 229.72C123.531 229.788 123.101 229.884 122.622 230.007C122.062 230.157 121.699 230.424 121.535 230.807C121.385 231.189 121.31 231.627 121.31 232.119V248.156C121.31 249.633 121.009 250.986 120.407 252.217C119.819 253.447 119.006 254.479 117.967 255.313C116.914 256.134 115.738 256.749 114.439 257.159C113.141 257.583 111.753 257.795 110.276 257.795C107.72 257.795 105.655 257.18 104.083 255.949C102.524 254.719 101.745 253.03 101.745 250.884C101.745 249.612 102.101 248.56 102.812 247.726C103.536 246.892 104.527 246.475 105.785 246.475C106.975 246.475 107.918 246.823 108.615 247.521C109.326 248.218 109.682 249.079 109.682 250.104C109.682 250.979 109.374 251.793 108.759 252.545C108.157 253.283 107.467 253.967 106.688 254.596V254.862C106.811 255.136 107.077 255.368 107.487 255.56C107.897 255.751 108.314 255.847 108.738 255.847C110.379 255.847 111.664 255.259 112.594 254.083C113.537 252.907 114.009 251.13 114.009 248.751V232.324C114.009 231.832 113.934 231.422 113.783 231.094C113.633 230.766 113.271 230.479 112.696 230.232C112.286 230.055 111.787 229.904 111.199 229.781C110.625 229.658 110.146 229.569 109.764 229.515V227.915H125.309V229.515ZM159.413 257.016H143.561V255.416C144.299 255.361 145.167 255.231 146.165 255.026C147.163 254.808 147.662 254.541 147.662 254.227C147.662 254.117 147.648 253.994 147.621 253.857C147.607 253.721 147.553 253.536 147.457 253.304L144.976 247.274H134.927C134.694 247.835 134.435 248.491 134.147 249.243C133.874 249.995 133.635 250.665 133.43 251.253C133.17 252.019 133.013 252.572 132.958 252.914C132.917 253.256 132.896 253.495 132.896 253.632C132.896 254.069 133.225 254.445 133.881 254.76C134.551 255.061 135.658 255.279 137.203 255.416V257.016H125.268V255.416C125.719 255.389 126.225 255.32 126.785 255.211C127.359 255.088 127.811 254.924 128.139 254.719C128.699 254.391 129.171 253.987 129.554 253.509C129.95 253.03 130.278 252.463 130.538 251.807C132.124 247.965 133.71 244.116 135.296 240.261C136.896 236.405 138.659 232.153 140.587 227.505H144.688C147.368 234.095 149.467 239.304 150.984 243.132C152.502 246.96 153.794 250.132 154.86 252.647C155.038 253.058 155.264 253.434 155.537 253.775C155.811 254.104 156.2 254.418 156.706 254.719C157.089 254.938 157.533 255.102 158.039 255.211C158.545 255.32 159.003 255.389 159.413 255.416V257.016ZM144.135 245.244L139.91 234.703L135.747 245.244H144.135ZM195.22 257.016H179.49V255.416C179.832 255.389 180.331 255.348 180.987 255.293C181.644 255.238 182.095 255.156 182.341 255.047C182.847 254.842 183.195 254.575 183.387 254.247C183.578 253.905 183.674 253.475 183.674 252.955V242.927H171.246V252.729C171.246 253.194 171.342 253.611 171.533 253.98C171.738 254.35 172.08 254.637 172.559 254.842C172.818 254.951 173.263 255.067 173.892 255.19C174.521 255.313 175.033 255.389 175.43 255.416V257.016H159.7V255.416C160.042 255.402 160.541 255.361 161.197 255.293C161.867 255.211 162.353 255.115 162.653 255.006C163.146 254.828 163.487 254.562 163.679 254.206C163.87 253.837 163.966 253.406 163.966 252.914V232.324C163.966 231.846 163.877 231.442 163.699 231.114C163.535 230.786 163.187 230.499 162.653 230.253C162.257 230.075 161.737 229.918 161.095 229.781C160.452 229.631 159.987 229.542 159.7 229.515V227.915H175.43V229.515C175.006 229.542 174.5 229.61 173.912 229.72C173.324 229.829 172.873 229.932 172.559 230.027C172.025 230.205 171.67 230.492 171.492 230.889C171.328 231.271 171.246 231.682 171.246 232.119V240.814H183.674V232.324C183.674 231.846 183.585 231.442 183.407 231.114C183.229 230.786 182.874 230.499 182.341 230.253C181.985 230.089 181.507 229.938 180.905 229.802C180.317 229.651 179.846 229.556 179.49 229.515V227.915H195.22V229.515C194.782 229.542 194.29 229.604 193.743 229.699C193.196 229.781 192.704 229.891 192.267 230.027C191.747 230.205 191.398 230.485 191.221 230.868C191.043 231.251 190.954 231.668 190.954 232.119V252.729C190.954 253.222 191.043 253.639 191.221 253.98C191.398 254.322 191.747 254.609 192.267 254.842C192.595 254.979 193.066 255.102 193.682 255.211C194.311 255.32 194.823 255.389 195.22 255.416V257.016ZM238.04 257.016H222.27V255.416C222.734 255.375 223.302 255.307 223.972 255.211C224.655 255.115 225.12 255.013 225.366 254.903C225.872 254.698 226.234 254.418 226.453 254.062C226.672 253.707 226.781 253.256 226.781 252.709V230.971L216.773 256.544H214.189C214.066 256.093 213.759 255.197 213.267 253.857C212.788 252.518 212.398 251.444 212.098 250.638L204.735 230.643V248.341C204.735 250.036 204.845 251.328 205.063 252.217C205.296 253.092 205.665 253.734 206.171 254.145C206.513 254.432 207.121 254.705 207.996 254.965C208.885 255.225 209.507 255.375 209.862 255.416V257.016H197.353V255.416C197.694 255.375 198.248 255.286 199.014 255.149C199.793 254.999 200.429 254.746 200.921 254.391C201.468 254.008 201.837 253.365 202.028 252.463C202.22 251.547 202.315 250.248 202.315 248.566V234.149C202.315 233.274 202.206 232.55 201.987 231.976C201.769 231.388 201.44 230.923 201.003 230.581C200.456 230.157 199.896 229.884 199.321 229.761C198.747 229.638 198.166 229.556 197.578 229.515V227.915H210.97L218.147 247.131L224.197 231.524C224.402 230.95 224.601 230.267 224.792 229.474C224.983 228.681 225.086 228.161 225.1 227.915H237.999V229.515C237.562 229.542 237.104 229.597 236.625 229.679C236.146 229.761 235.688 229.87 235.251 230.007C234.718 230.185 234.362 230.465 234.185 230.848C234.021 231.23 233.938 231.654 233.938 232.119V252.729C233.938 253.222 234.021 253.639 234.185 253.98C234.362 254.309 234.718 254.596 235.251 254.842C235.524 254.965 235.969 255.081 236.584 255.19C237.213 255.3 237.698 255.375 238.04 255.416V257.016Z" fill="white"/>
<defs>
<linearGradient id="paint0_linear_1_2" x1="65.008" y1="119.984" x2="65.008" y2="26723.1" gradientUnits="userSpaceOnUse">
<stop stop-color="#A855F7"/>
<stop offset="0.4" stop-color="#C026D3"/>
<stop offset="1" stop-color="#DC2626"/>
</linearGradient>
<radialGradient id="paint1_radial_1_2" cx="0" cy="0" r="1" gradientUnits="userSpaceOnUse" gradientTransform="translate(4890.47 592.679) scale(80.008 8.0117)">
<stop stop-color="#E879F9" stop-opacity="0.6"/>
<stop offset="1" stop-color="#C026D3" stop-opacity="0"/>
</radialGradient>
<clipPath id="clip0_1_2">
<rect width="191.469" height="11.4766" fill="white" transform="translate(74.2655 59.2734)"/>
</clipPath>
<clipPath id="clip1_1_2">
<rect width="201.516" height="21.4688" fill="white" transform="translate(69.242 52.2734)"/>
</clipPath>
<clipPath id="clip2_1_2">
<rect width="170.5" height="16.5078" fill="white" transform="translate(84.75 54.7578)"/>
</clipPath>
<clipPath id="clip3_1_2">
<rect width="182.469" height="32.5156" fill="white" transform="translate(78.7655 68.75)"/>
</clipPath>
<clipPath id="clip4_1_2">
<rect width="243" height="300.945" fill="white" transform="translate(48.5 98.5234)"/>
</clipPath>
<clipPath id="clip5_1_2">
<rect width="225.469" height="282.5" fill="white" transform="translate(57.2655 109.242)"/>
</clipPath>
<clipPath id="clip6_1_2">
<rect width="209.984" height="266.031" fill="white" transform="translate(65.008 119.984)"/>
</clipPath>
<clipPath id="clip7_1_2">
<rect width="204" height="23.9844" fill="white" transform="translate(68 108.016)"/>
</clipPath>
<clipPath id="clip8_1_2">
<rect width="160.016" height="16.0234" fill="white" transform="translate(89.992 111.977)"/>
</clipPath>
<clipPath id="clip9_1_2">
<rect width="39.9844" height="159.984" fill="white" transform="translate(65.0078 140.008)"/>
</clipPath>
<clipPath id="clip10_1_2">
<rect width="24.0078" height="79.9922" fill="white" transform="translate(68 140.008)"/>
</clipPath>
<clipPath id="clip11_1_2">
<rect width="180" height="1.50781" fill="white" transform="translate(80 77.2578)"/>
</clipPath>
<clipPath id="clip12_1_2">
<rect width="180" height="1.50781" fill="white" transform="translate(80 85.2656)"/>
</clipPath>
<clipPath id="clip13_1_2">
<rect width="180" height="1.50781" fill="white" transform="translate(80 93.2266)"/>
</clipPath>
<clipPath id="clip14_1_2">
<rect width="10" height="1.00781" fill="white" transform="translate(60.0078 149.492)"/>
</clipPath>
<clipPath id="clip15_1_2">
<rect width="10" height="1.50781" fill="white" transform="translate(60.0078 199.227)"/>
</clipPath>
<clipPath id="clip16_1_2">
<rect width="10" height="1.00781" fill="white" transform="translate(60.0078 249.508)"/>
</clipPath>
<clipPath id="clip17_1_2">
<rect width="10" height="1.00781" fill="white" transform="translate(60.0078 299.484)"/>
</clipPath>
<clipPath id="clip18_1_2">
<rect width="10" height="1.00781" fill="white" transform="translate(269.992 149.492)"/>
</clipPath>
<clipPath id="clip19_1_2">
<rect width="10" height="1.50781" fill="white" transform="translate(269.992 199.227)"/>
</clipPath>
<clipPath id="clip20_1_2">
<rect width="10" height="1.00781" fill="white" transform="translate(269.992 249.508)"/>
</clipPath>
<clipPath id="clip21_1_2">
<rect width="10" height="1.00781" fill="white" transform="translate(269.992 299.484)"/>
</clipPath>
</defs>
</svg>
